<svg width="197" height="31" viewBox="0 0 197 31" fill="none" xmlns="http://www.w3.org/2000/svg">
<path d="M0.201705 30V0.90909H7.23295V13.2102H7.61648L17.233 0.90909H25.5142L15.2017 13.892L25.6989 30H17.2898L10.0455 18.5653L7.23295 22.1165V30H0.201705ZM36.8849 30.4119C34.6027 30.4119 32.633 29.9621 30.9759 29.0625C29.3281 28.1534 28.0592 26.8608 27.169 25.1847C26.2884 23.4991 25.848 21.4962 25.848 19.1761C25.848 16.9223 26.2931 14.9527 27.1832 13.267C28.0734 11.572 29.3281 10.2557 30.9474 9.31818C32.5668 8.37121 34.4749 7.89773 36.6719 7.89773C38.2249 7.89773 39.6454 8.1392 40.9332 8.62216C42.2211 9.10511 43.3338 9.82008 44.2713 10.767C45.2088 11.714 45.938 12.8835 46.4588 14.2756C46.9796 15.6581 47.2401 17.2443 47.2401 19.0341V20.767H28.277V16.733H40.777C40.7675 15.9943 40.5923 15.3362 40.2514 14.7585C39.9105 14.1809 39.4418 13.7311 38.8452 13.4091C38.258 13.0777 37.581 12.9119 36.8139 12.9119C36.0374 12.9119 35.3414 13.0871 34.7259 13.4375C34.1103 13.7784 33.6226 14.2472 33.2628 14.8438C32.9029 15.4309 32.7135 16.0985 32.6946 16.8466V20.9517C32.6946 21.8419 32.8698 22.6231 33.2202 23.2955C33.5705 23.9583 34.0677 24.4744 34.7116 24.8438C35.3556 25.2131 36.1226 25.3977 37.0128 25.3977C37.6283 25.3977 38.187 25.3125 38.6889 25.142C39.1908 24.9716 39.6217 24.7206 39.9815 24.3892C40.3414 24.0578 40.6113 23.6506 40.7912 23.1676L47.169 23.3523C46.9039 24.7822 46.3215 26.0275 45.4219 27.0881C44.5317 28.1392 43.3622 28.9583 41.9134 29.5455C40.4645 30.1231 38.7884 30.4119 36.8849 30.4119ZM50.7876 30V0.90909H57.7337V11.9176H57.8757C58.1598 11.2547 58.5623 10.6155 59.0831 10C59.6134 9.38447 60.2857 8.88258 61.1001 8.49432C61.924 8.09659 62.9089 7.89773 64.0547 7.89773C65.5698 7.89773 66.9856 8.29545 68.3018 9.09091C69.6276 9.88636 70.6977 11.1127 71.5121 12.7699C72.3265 14.4271 72.7337 16.5388 72.7337 19.1051C72.7337 21.5767 72.3407 23.6458 71.5547 25.3125C70.7782 26.9792 69.727 28.2292 68.4013 29.0625C67.085 29.8958 65.6219 30.3125 64.0121 30.3125C62.9136 30.3125 61.9619 30.1326 61.157 29.7727C60.352 29.4129 59.675 28.9394 59.1257 28.3523C58.5859 27.7652 58.1693 27.1354 57.8757 26.4631H57.6626V30H50.7876ZM57.5916 19.0909C57.5916 20.2652 57.7479 21.2879 58.0604 22.1591C58.3823 23.0303 58.8416 23.7074 59.4382 24.1903C60.0443 24.6638 60.7687 24.9006 61.6115 24.9006C62.4638 24.9006 63.1882 24.6638 63.7848 24.1903C64.3814 23.7074 64.8312 23.0303 65.1342 22.1591C65.4467 21.2879 65.603 20.2652 65.603 19.0909C65.603 17.9167 65.4467 16.8987 65.1342 16.0369C64.8312 15.1752 64.3814 14.5076 63.7848 14.0341C63.1977 13.5606 62.4732 13.3239 61.6115 13.3239C60.7592 13.3239 60.0348 13.5559 59.4382 14.0199C58.8416 14.4839 58.3823 15.1468 58.0604 16.0085C57.7479 16.8703 57.5916 17.8977 57.5916 19.0909ZM86.5724 30.4119C84.2902 30.4119 82.3205 29.9621 80.6634 29.0625C79.0156 28.1534 77.7467 26.8608 76.8565 25.1847C75.9759 23.4991 75.5355 21.4962 75.5355 19.1761C75.5355 16.9223 75.9806 14.9527 76.8707 13.267C77.7609 11.572 79.0156 10.2557 80.6349 9.31818C82.2543 8.37121 84.1624 7.89773 86.3594 7.89773C87.9124 7.89773 89.3329 8.1392 90.6207 8.62216C91.9086 9.10511 93.0213 9.82008 93.9588 10.767C94.8963 11.714 95.6255 12.8835 96.1463 14.2756C96.6671 15.6581 96.9276 17.2443 96.9276 19.0341V20.767H77.9645V16.733H90.4645C90.455 15.9943 90.2798 15.3362 89.9389 14.7585C89.598 14.1809 89.1293 13.7311 88.5327 13.4091C87.9455 13.0777 87.2685 12.9119 86.5014 12.9119C85.7249 12.9119 85.0289 13.0871 84.4134 13.4375C83.7978 13.7784 83.3101 14.2472 82.9503 14.8438C82.5904 15.4309 82.401 16.0985 82.3821 16.8466V20.9517C82.3821 21.8419 82.5573 22.6231 82.9077 23.2955C83.258 23.9583 83.7552 24.4744 84.3991 24.8438C85.0431 25.2131 85.8101 25.3977 86.7003 25.3977C87.3158 25.3977 87.8745 25.3125 88.3764 25.142C88.8783 24.9716 89.3092 24.7206 89.669 24.3892C90.0289 24.0578 90.2988 23.6506 90.4787 23.1676L96.8565 23.3523C96.5914 24.7822 96.009 26.0275 95.1094 27.0881C94.2192 28.1392 93.0497 28.9583 91.6009 29.5455C90.152 30.1231 88.4759 30.4119 86.5724 30.4119ZM108.444 30.3125C106.834 30.3125 105.371 29.8958 104.055 29.0625C102.738 28.2292 101.687 26.9792 100.901 25.3125C100.115 23.6458 99.7223 21.5767 99.7223 19.1051C99.7223 16.5388 100.129 14.4271 100.944 12.7699C101.758 11.1127 102.824 9.88636 104.14 9.09091C105.466 8.29545 106.891 7.89773 108.415 7.89773C109.561 7.89773 110.541 8.09659 111.356 8.49432C112.17 8.88258 112.843 9.38447 113.373 10C113.903 10.6155 114.306 11.2547 114.58 11.9176H114.722V0.90909H121.668V30H114.793V26.4631H114.58C114.287 27.1354 113.87 27.7652 113.33 28.3523C112.79 28.9394 112.113 29.4129 111.299 29.7727C110.494 30.1326 109.542 30.3125 108.444 30.3125ZM110.859 24.9006C111.701 24.9006 112.421 24.6638 113.018 24.1903C113.614 23.7074 114.074 23.0303 114.396 22.1591C114.718 21.2879 114.879 20.2652 114.879 19.0909C114.879 17.8977 114.718 16.8703 114.396 16.0085C114.083 15.1468 113.624 14.4839 113.018 14.0199C112.421 13.5559 111.701 13.3239 110.859 13.3239C109.997 13.3239 109.268 13.5606 108.671 14.0341C108.075 14.5076 107.62 15.1752 107.308 16.0369C107.004 16.8987 106.853 17.9167 106.853 19.0909C106.853 20.2652 107.009 21.2879 107.322 22.1591C107.634 23.0303 108.084 23.7074 108.671 24.1903C109.268 24.6638 109.997 24.9006 110.859 24.9006ZM136.26 30.4119C133.978 30.4119 132.008 29.9621 130.351 29.0625C128.703 28.1534 127.434 26.8608 126.544 25.1847C125.663 23.4991 125.223 21.4962 125.223 19.1761C125.223 16.9223 125.668 14.9527 126.558 13.267C127.448 11.572 128.703 10.2557 130.322 9.31818C131.942 8.37121 133.85 7.89773 136.047 7.89773C137.6 7.89773 139.02 8.1392 140.308 8.62216C141.596 9.10511 142.709 9.82008 143.646 10.767C144.584 11.714 145.313 12.8835 145.834 14.2756C146.355 15.6581 146.615 17.2443 146.615 19.0341V20.767H127.652V16.733H140.152C140.143 15.9943 139.967 15.3362 139.626 14.7585C139.286 14.1809 138.817 13.7311 138.22 13.4091C137.633 13.0777 136.956 12.9119 136.189 12.9119C135.412 12.9119 134.716 13.0871 134.101 13.4375C133.485 13.7784 132.998 14.2472 132.638 14.8438C132.278 15.4309 132.089 16.0985 132.07 16.8466V20.9517C132.07 21.8419 132.245 22.6231 132.595 23.2955C132.946 23.9583 133.443 24.4744 134.087 24.8438C134.731 25.2131 135.498 25.3977 136.388 25.3977C137.003 25.3977 137.562 25.3125 138.064 25.142C138.566 24.9716 138.997 24.7206 139.357 24.3892C139.716 24.0578 139.986 23.6506 140.166 23.1676L146.544 23.3523C146.279 24.7822 145.696 26.0275 144.797 27.0881C143.907 28.1392 142.737 28.9583 141.288 29.5455C139.839 30.1231 138.163 30.4119 136.26 30.4119ZM165.049 30H157.492L167.308 0.90909H176.668L186.484 30H178.927L172.094 8.23864H171.867L165.049 30ZM164.04 18.5511H179.836V23.892H164.04V18.5511ZM196.647 0.90909V30H189.616V0.90909H196.647Z" fill="url(#paint0_linear_3_128)"/>
<defs>
<linearGradient id="paint0_linear_3_128" x1="98.5" y1="-9" x2="225.866" y2="-9" gradientUnits="userSpaceOnUse">
<stop stop-color="#A30CFF"/>
<stop offset="0.917115" stop-color="#FF04B9" stop-opacity="0"/>
</linearGradient>
</defs>
</svg>
